<?xml version="1.0" encoding="utf-8"?>
<svg version="1.1" xmlns="http://www.w3.org/2000/svg" xmlns:xlink="http://www.w3.org/1999/xlink" x="0px" y="0px" viewBox="0 0 1000 1000" enable-background="new 0 0 1000 1000" xml:space="preserve">
<g><path d="M866.3,480c-28.8,28.2-48,45.7-48,45.7c-30,30.4-32.7,44.5-32.7,88.3v107.2c0,43.8-34.1,79.6-75.8,79.6H197.7c-41.7,0-75.8-35.8-75.8-79.6V370.5c0-43.8,34.1-79.6,75.8-79.6H539c50.9,0,71.3-2.6,82.8-14.6l49.8-56.4c0,0,10.9-10.7,10.7-14.8c-1.6-8.3-11.6-8.8-62.6-8.8H85.8c-41.7,0-75.8,35.8-75.8,79.6v525.4c0,43.8,34.1,79.6,75.8,79.6h726.7c41.7,0,75.8-35.8,75.8-79.6V544.2c0-43.8-0.9-53.8-3-60.6C883.2,476.8,874.5,473.5,866.3,480z"/><path d="M946.8,308.7c68.2-85.3,45.2-107.4,2.7-152.1c-33.1-34.8-60.1-65.2-143.8,3.8L946.8,308.7z"/><path d="M763.8,198.7c-7.2,7.1-14.7,14.7-22.6,23C739.8,223.3,520.2,454,520.2,454c-31.2,30.7-82.9,203.3-65.1,222.1c17.9,18.8,180.5-31.8,210.6-67.6c0,0,220.1-231.2,221.9-233.1c7.9-8.3,15.2-16.1,22-23.6L763.8,198.7z"/></g>
</svg>